<svg width="61" height="61" viewBox="0 0 61 61" fill="none" xmlns="http://www.w3.org/2000/svg">
<path d="M53.6801 20.74V40.26C53.6801 43.6272 50.9473 46.36 47.5801 46.36H13.4201C10.0529 46.36 7.32007 43.6272 7.32007 40.26V20.74C7.32007 18.6111 8.41197 16.7384 10.0651 15.6465C11.0289 15.0121 12.1818 14.64 13.4201 14.64H47.5801C48.8184 14.64 49.9713 15.0121 50.9351 15.6465C52.5882 16.7384 53.6801 18.6111 53.6801 20.74Z" fill="#FEFDEF"/>
<path d="M47.58 46.97H13.42C9.72031 46.97 6.70996 43.9596 6.70996 40.26V20.74C6.70996 17.0403 9.72031 14.03 13.42 14.03H47.58C51.2796 14.03 54.29 17.0403 54.29 20.74V40.26C54.29 43.9596 51.2796 46.97 47.58 46.97ZM13.42 15.25C10.3925 15.25 7.92996 17.7126 7.92996 20.74V40.26C7.92996 43.2874 10.3925 45.75 13.42 45.75H47.58C50.6074 45.75 53.07 43.2874 53.07 40.26V20.74C53.07 17.7126 50.6074 15.25 47.58 15.25H13.42Z" fill="#1F212B"/>
<path d="M30.5 33.55C30.4305 33.55 30.361 33.5262 30.3048 33.4792L9.86983 16.3992C9.74051 16.2913 9.72343 16.0991 9.8314 15.9698C9.93998 15.8399 10.1334 15.824 10.2608 15.9314L30.5 32.8479L50.7398 15.9314C50.8673 15.8234 51.0613 15.8399 51.1693 15.9698C51.2772 16.0991 51.2596 16.2913 51.1308 16.3992L30.6958 33.4792C30.6391 33.5262 30.5696 33.55 30.5 33.55ZM50.935 45.14C50.8661 45.14 50.796 45.1168 50.7398 45.0692L36.8733 33.4792C36.744 33.3712 36.7269 33.1791 36.8349 33.0498C36.9435 32.9198 37.1368 32.904 37.2643 33.0114L51.1308 44.6013C51.2602 44.7093 51.2772 44.9015 51.1693 45.0308C51.1089 45.1028 51.0223 45.14 50.935 45.14ZM10.065 45.14C9.9778 45.14 9.89118 45.1028 9.83079 45.0302C9.72282 44.9009 9.74051 44.7087 9.86922 44.6007L23.7357 33.0107C23.8632 32.9028 24.0566 32.9192 24.1652 33.0492C24.2732 33.1785 24.2555 33.3706 24.1268 33.4786L10.2602 45.0686C10.2041 45.1168 10.134 45.14 10.065 45.14Z" fill="#1F212B"/>
</svg>
