<?xml version="1.0" encoding="utf-8"?>
<!-- Generator: Adobe Illustrator 25.4.1, SVG Export Plug-In . SVG Version: 6.00 Build 0)  -->
<svg version="1.1" id="Calque_1" xmlns="http://www.w3.org/2000/svg" xmlns:xlink="http://www.w3.org/1999/xlink" x="0px" y="0px"
	 viewBox="0 0 118.6 68.5" style="enable-background:new 0 0 118.6 68.5;" xml:space="preserve">
<style type="text/css">
	.st0{fill:#FFFFFF;}
	.st1{fill:url(#SVGID_1_);}
	.st2{fill:url(#SVGID_00000160895233559971303410000005390211300578424197_);}
	.st3{fill:url(#SVGID_00000119079438383420404530000014395873755826060423_);}
	.st4{fill:url(#SVGID_00000088110154879428376370000012769423250456940217_);}
	.st5{fill:url(#SVGID_00000028311974291370517330000002572429442716884370_);}
	.st6{fill:#8B146E;}
</style>
<path class="st0" d="M23.9,0.1L12.1,4.3c-0.6,0.2-1,0.8-1,1.4v57.2c0,0.6,0.4,1.2,1,1.4l11.8,4.2c1,0.3,2-0.4,2-1.4V1.5
	C25.9,0.5,24.9-0.3,23.9,0.1z"/>
<path class="st0" d="M43.4,19.1l-11.8-4.2c-1-0.3-2,0.4-2,1.4V67c0,1,1,1.7,2,1.4l11.8-4.2c0.6-0.2,1-0.8,1-1.4V20.5
	C44.4,19.8,44,19.3,43.4,19.1z"/>
<path class="st0" d="M5.4,48.2L1,49.8c-0.6,0.2-1,0.8-1,1.4v7.5c0,0.6,0.4,1.2,1,1.4l4.4,1.6c1,0.3,2-0.4,2-1.4V49.6
	C7.4,48.6,6.4,47.9,5.4,48.2z"/>
<path class="st0" d="M54.5,49.8l-4.4-1.6c-1-0.3-2,0.4-2,1.4v10.6c0,1,1,1.7,2,1.4l4.4-1.6c0.6-0.2,1-0.8,1-1.4v-7.5
	C55.5,50.6,55.1,50,54.5,49.8z"/>
<path class="st0" d="M54.5,23.3l-4.4-1.6c-1-0.3-2,0.4-2,1.4v10.6c0,1,1,1.7,2,1.4l4.4-1.6c0.6-0.2,1-0.8,1-1.4v-7.5
	C55.5,24.1,55.1,23.5,54.5,23.3z"/>
<path class="st0" d="M67.1,26.7v1.7h-2.3v1.1h2.3v1.8h-2.3v1.2h2.3v1.7h-4.3v-7.6L67.1,26.7L67.1,26.7z"/>
<path class="st0" d="M69.9,26.7l2.9,4v-4h1.9v7.6H73l-2.8-4.1v4.1h-1.9v-7.6H69.9z"/>
<path class="st0" d="M80.2,26.7v1.7h-1.5v5.9h-1.9v-5.9h-1.5v-1.7H80.2z"/>
<path class="st0" d="M86.1,27.7c0.5,0.7,0.6,1.7,0.5,2.4c-0.2,0.8-0.8,1.3-1.6,1.7l1.7,2.6h-2.3l-1.5-2.4v2.4H81v-7.6h2.6
	C84.4,26.7,85.4,26.7,86.1,27.7z M83.6,30.5c0.9,0,1.1-0.6,1.1-0.8c0.1-0.3,0-0.5-0.2-0.8c-0.3-0.4-1.2-0.4-1.4-0.4h-0.2v2
	L83.6,30.5L83.6,30.5z"/>
<path class="st0" d="M91.7,26.7v1.7h-2.3v1.1h2.3v1.8h-2.3v1.2h2.3v1.7h-4.3v-7.6L91.7,26.7L91.7,26.7z"/>
<path class="st0" d="M97.2,26.7v1.7h-1.5v5.9h-1.9v-5.9h-1.5v-1.7H97.2z"/>
<path class="st0" d="M99.9,26.7v7.6H98v-7.6H99.9z"/>
<path class="st0" d="M105.3,26.7v1.7H103v1.1h2.3v1.8H103v1.2h2.3v1.7H101v-7.6L105.3,26.7L105.3,26.7z"/>
<path class="st0" d="M108,26.7l2.9,4v-4h1.9v7.6h-1.6l-2.8-4.1v4.1h-1.9v-7.6H108z"/>
<path class="st0" d="M116.8,29.1c0,0-0.1-0.6-0.4-0.7c-0.2-0.1-0.4-0.1-0.6,0.1c-0.2,0.1-0.2,0.3-0.2,0.5c0,0.4,0.3,0.4,0.7,0.6
	l0.3,0.1c1.1,0.5,1.9,1.1,1.9,2.3c0,0.6-0.4,1.6-1.2,2.1c-0.8,0.5-2,0.5-2.8,0.1c-0.9-0.5-1.1-1.5-1.1-2.3h1.8c0,0.3,0,0.8,0.4,1
	c0.2,0.1,0.4,0.1,0.6-0.1c0.2-0.2,0.3-0.4,0.3-0.6c-0.1-0.4-0.4-0.6-0.8-0.8l-0.2-0.1c-1-0.4-1.8-1-1.9-2.1c-0.1-0.7,0.2-1.5,1-2.1
	c0.8-0.5,1.9-0.6,2.7-0.1c1,0.6,1.2,1.3,1.2,2.1H116.8z"/>
<path class="st0" d="M67.5,42.2c0,1,0,1.9-1.1,2.6c-0.9,0.5-1.9,0.5-2.7,0c-1-0.6-1.1-1.4-1.1-2.2h2c0,0.3,0,0.6,0.3,0.8
	c0.2,0.1,0.3,0.1,0.5,0c0.4-0.2,0.3-1,0.3-1.1v-4.8h1.9L67.5,42.2L67.5,42.2z"/>
<path class="st0" d="M72.7,37.3l3,7.7h-2.2l-0.4-1.1h-2.5L70.3,45h-2.1l3-7.7H72.7z M72.6,42.3l-0.7-2.1l-0.7,2.1H72.6z"/>
<path class="st0" d="M81.8,40.3c-0.5-0.8-1.1-1-1.7-1.1c-0.5,0-1.2,0.2-1.7,0.9c-0.4,0.6-0.4,1.3-0.2,1.9c0.3,0.7,0.8,1.1,1.4,1.2
	c0.5,0.1,1.2,0,1.8-0.6c0.2-0.2,0.3-0.4,0.3-0.4h2c-0.4,1.4-1.2,2.3-2.6,2.8c-1.1,0.4-2.6,0.2-3.7-0.7c-1.3-1-1.5-2.4-1.4-3.4
	c0.1-1.1,0.7-2.4,2.1-3.1c1.1-0.6,2.5-0.6,3.8,0.1c1.1,0.6,1.7,1.6,1.9,2.5L81.8,40.3L81.8,40.3z"/>
<path class="st0" d="M92.5,43.6v1.6c-0.6,0.1-1.5,0-2.2-0.6c-1.2,0.7-2.6,0.7-3.7,0.2c-1.2-0.6-1.9-1.7-2.1-2.9
	c-0.2-1,0.1-2.5,1.2-3.5c1-0.9,2.4-1.2,3.4-1c1.2,0.3,2.3,1,2.9,2.4c0.5,1.1,0.4,2.4-0.3,3.6C92,43.6,92.2,43.6,92.5,43.6z
	 M89.3,39.5c-0.5-0.3-1.2-0.4-1.7-0.1c-0.8,0.3-1.1,0.8-1.2,1.5c0.2-0.1,0.3-0.1,0.5-0.2c1.2-0.3,2.1,0.3,3.2,1.5
	c0.2-0.4,0.3-0.8,0.2-1C90.2,40.5,89.9,39.9,89.3,39.5z M86.6,42.3c0,0.1,0.2,0.2,0.3,0.4c0.6,0.5,1.3,0.6,1.9,0.4
	c-0.2-0.2-0.1-0.2-0.4-0.4C87.8,42.2,87.2,42.1,86.6,42.3z"/>
<path class="st0" d="M94.9,37.4v4.4c0,0.4,0,1.1,0.5,1.4c0.3,0.2,0.7,0.1,0.9,0c0.5-0.3,0.5-1.2,0.5-1.6v-4.3h1.9v4.5
	c0,1.1,0,2.1-1.3,2.9c-0.7,0.4-2.3,0.5-3,0C93,44.1,93,42.9,93,42v-4.6L94.9,37.4L94.9,37.4z"/>
<path class="st0" d="M104,37.4v1.7h-2.3v1.1h2.3V42h-2.3v1.2h2.3V45h-4.3v-7.6L104,37.4L104,37.4z"/>
<path class="st0" d="M108,39.7c0,0-0.1-0.6-0.4-0.7c-0.2-0.1-0.4-0.1-0.6,0.1c-0.2,0.1-0.2,0.3-0.2,0.5c0,0.4,0.3,0.4,0.7,0.6
	l0.3,0.1c1.1,0.5,1.9,1.1,1.9,2.3c0,0.6-0.4,1.6-1.2,2.1c-0.8,0.5-2,0.5-2.8,0.1c-0.9-0.5-1.1-1.5-1.1-2.3h1.8c0,0.3,0,0.8,0.4,1
	c0.2,0.1,0.4,0.1,0.6-0.1c0.2-0.2,0.3-0.4,0.3-0.6c-0.1-0.4-0.4-0.6-0.8-0.8l-0.2-0.1c-1-0.4-1.8-1-1.9-2.1c-0.1-0.7,0.2-1.5,1-2.1
	c0.8-0.5,1.9-0.6,2.7-0.1c1,0.6,1.2,1.3,1.2,2.1H108z"/>
<path class="st0" d="M68.2,50.9c-0.5-0.8-1.1-1-1.7-1.1c-0.5,0-1.2,0.2-1.7,0.9c-0.4,0.6-0.4,1.3-0.2,1.9c0.3,0.7,0.8,1.1,1.4,1.2
	c0.5,0.1,1.2,0,1.8-0.6c0.2-0.2,0.3-0.4,0.3-0.4h2c-0.4,1.4-1.2,2.3-2.6,2.8c-1.1,0.4-2.6,0.2-3.7-0.7c-1.3-1-1.5-2.4-1.4-3.4
	c0.1-1.1,0.7-2.4,2.1-3.1c1.1-0.6,2.5-0.6,3.8,0.1c1.1,0.6,1.7,1.6,1.9,2.5L68.2,50.9L68.2,50.9z"/>
<path class="st0" d="M75.2,48l3,7.7h-2.2l-0.4-1.1h-2.5l-0.4,1.1h-2.1l3-7.7H75.2z M75.1,52.9l-0.7-2.1l-0.7,2.1H75.1z"/>
<path class="st0" d="M84.1,48.9c0.5,0.7,0.6,1.7,0.5,2.4c-0.2,0.8-0.8,1.3-1.6,1.7l1.7,2.6h-2.3l-1.5-2.4v2.4H79V48h2.6
	C82.4,48,83.4,48,84.1,48.9z M81.6,51.8c0.9,0,1.1-0.6,1.1-0.8c0.1-0.3,0-0.5-0.2-0.8c-0.3-0.4-1.2-0.4-1.4-0.4h-0.2v2L81.6,51.8
	L81.6,51.8z"/>
<path class="st0" d="M89.9,48v1.7h-1.5v5.9h-1.9v-5.9H85V48H89.9z"/>
<path class="st0" d="M92.6,48v7.6h-1.9V48H92.6z"/>
<path class="st0" d="M97.9,48v1.7h-2.3v1.1h2.3v1.8h-2.3v1.2h2.3v1.7h-4.3V48L97.9,48L97.9,48z"/>
<path class="st0" d="M104.2,48.9c0.5,0.7,0.6,1.7,0.5,2.4c-0.2,0.8-0.8,1.3-1.6,1.7l1.7,2.6h-2.3l-1.5-2.4v2.4H99V48h2.6
	C102.5,48,103.5,48,104.2,48.9z M101.7,51.8c0.9,0,1.1-0.6,1.1-0.8c0.1-0.3,0-0.5-0.2-0.8c-0.3-0.4-1.2-0.4-1.4-0.4H101v2
	L101.7,51.8L101.7,51.8z"/>
<linearGradient id="SVGID_1_" gradientUnits="userSpaceOnUse" x1="-8.7353" y1="31.2258" x2="113.4843" y2="75.2668" gradientTransform="matrix(1 0 0 -1 0 77.3751)">
	<stop  offset="2.640740e-03" style="stop-color:#82027E"/>
	<stop  offset="1" style="stop-color:#F6024C"/>
</linearGradient>
<path class="st1" d="M23.9,0.1L12.1,4.3c-0.6,0.2-1,0.8-1,1.4v57.2c0,0.6,0.4,1.2,1,1.4l11.8,4.2c1,0.3,2-0.4,2-1.4V1.5
	C25.9,0.5,24.9-0.3,23.9,0.1z"/>
<linearGradient id="SVGID_00000158724286649047630650000007349028286665812644_" gradientUnits="userSpaceOnUse" x1="-5.5803" y1="22.4698" x2="116.6399" y2="66.511" gradientTransform="matrix(1 0 0 -1 0 77.3751)">
	<stop  offset="2.640740e-03" style="stop-color:#82027E"/>
	<stop  offset="1" style="stop-color:#F6024C"/>
</linearGradient>
<path style="fill:url(#SVGID_00000158724286649047630650000007349028286665812644_);" d="M43.4,19.1l-11.8-4.2c-1-0.3-2,0.4-2,1.4
	V67c0,1,1,1.7,2,1.4l11.8-4.2c0.6-0.2,1-0.8,1-1.4V20.5C44.4,19.8,44,19.3,43.4,19.1z"/>
<linearGradient id="SVGID_00000065040861234040568360000004107603908935933573_" gradientUnits="userSpaceOnUse" x1="-4.2554" y1="18.7938" x2="117.9644" y2="62.8347" gradientTransform="matrix(1 0 0 -1 0 77.3751)">
	<stop  offset="2.640740e-03" style="stop-color:#82027E"/>
	<stop  offset="1" style="stop-color:#F6024C"/>
</linearGradient>
<path style="fill:url(#SVGID_00000065040861234040568360000004107603908935933573_);" d="M5.4,48.2L1,49.8c-0.6,0.2-1,0.8-1,1.4v7.5
	c0,0.6,0.4,1.2,1,1.4l4.4,1.6c1,0.3,2-0.4,2-1.4V49.6C7.4,48.6,6.4,47.9,5.4,48.2z"/>
<linearGradient id="SVGID_00000022559748299308502160000006713236528466244285_" gradientUnits="userSpaceOnUse" x1="0.7736" y1="4.838" x2="122.9938" y2="48.8794" gradientTransform="matrix(1 0 0 -1 0 77.3751)">
	<stop  offset="2.640740e-03" style="stop-color:#82027E"/>
	<stop  offset="1" style="stop-color:#F6024C"/>
</linearGradient>
<path style="fill:url(#SVGID_00000022559748299308502160000006713236528466244285_);" d="M54.5,49.8l-4.4-1.6c-1-0.3-2,0.4-2,1.4
	v10.6c0,1,1,1.7,2,1.4l4.4-1.6c0.6-0.2,1-0.8,1-1.4v-7.5C55.5,50.6,55.1,50,54.5,49.8z"/>
<linearGradient id="SVGID_00000155841615707393527920000000221155761921606020_" gradientUnits="userSpaceOnUse" x1="-7.6713" y1="28.2733" x2="114.5493" y2="72.3147" gradientTransform="matrix(1 0 0 -1 0 77.3751)">
	<stop  offset="2.640740e-03" style="stop-color:#82027E"/>
	<stop  offset="1" style="stop-color:#F6024C"/>
</linearGradient>
<path style="fill:url(#SVGID_00000155841615707393527920000000221155761921606020_);" d="M54.5,23.3l-4.4-1.6c-1-0.3-2,0.4-2,1.4
	v10.6c0,1,1,1.7,2,1.4l4.4-1.6c0.6-0.2,1-0.8,1-1.4v-7.5C55.5,24.1,55.1,23.5,54.5,23.3z"/>
<path class="st6" d="M67.1,26.7v1.7h-2.3v1.1h2.3v1.8h-2.3v1.2h2.3v1.7h-4.3v-7.6L67.1,26.7L67.1,26.7z"/>
<path class="st6" d="M69.9,26.7l2.9,4v-4h1.9v7.6H73l-2.8-4.1v4.1h-1.9v-7.6H69.9z"/>
<path class="st6" d="M80.2,26.7v1.7h-1.5v5.9h-1.9v-5.9h-1.5v-1.7H80.2z"/>
<path class="st6" d="M86.1,27.7c0.5,0.7,0.6,1.7,0.5,2.4c-0.2,0.8-0.8,1.3-1.6,1.7l1.7,2.6h-2.3l-1.5-2.4v2.4H81v-7.6h2.6
	C84.4,26.7,85.4,26.7,86.1,27.7z M83.6,30.5c0.9,0,1.1-0.6,1.1-0.8c0.1-0.3,0-0.5-0.2-0.8c-0.3-0.4-1.2-0.4-1.4-0.4h-0.2v2
	L83.6,30.5L83.6,30.5z"/>
<path class="st6" d="M91.7,26.7v1.7h-2.3v1.1h2.3v1.8h-2.3v1.2h2.3v1.7h-4.3v-7.6L91.7,26.7L91.7,26.7z"/>
<path class="st6" d="M97.2,26.7v1.7h-1.5v5.9h-1.9v-5.9h-1.5v-1.7H97.2z"/>
<path class="st6" d="M99.9,26.7v7.6H98v-7.6H99.9z"/>
<path class="st6" d="M105.3,26.7v1.7H103v1.1h2.3v1.8H103v1.2h2.3v1.7H101v-7.6L105.3,26.7L105.3,26.7z"/>
<path class="st6" d="M108,26.7l2.9,4v-4h1.9v7.6h-1.6l-2.8-4.1v4.1h-1.9v-7.6H108z"/>
<path class="st6" d="M116.8,29.1c0,0-0.1-0.6-0.4-0.7c-0.2-0.1-0.4-0.1-0.6,0.1c-0.2,0.1-0.2,0.3-0.2,0.5c0,0.4,0.3,0.4,0.7,0.6
	l0.3,0.1c1.1,0.5,1.9,1.1,1.9,2.3c0,0.6-0.4,1.6-1.2,2.1c-0.8,0.5-2,0.5-2.8,0.1c-0.9-0.5-1.1-1.5-1.1-2.3h1.8c0,0.3,0,0.8,0.4,1
	c0.2,0.1,0.4,0.1,0.6-0.1c0.2-0.2,0.3-0.4,0.3-0.6c-0.1-0.4-0.4-0.6-0.8-0.8l-0.2-0.1c-1-0.4-1.8-1-1.9-2.1c-0.1-0.7,0.2-1.5,1-2.1
	c0.8-0.5,1.9-0.6,2.7-0.1c1,0.6,1.2,1.3,1.2,2.1H116.8z"/>
<path class="st6" d="M67.5,42.2c0,1,0,1.9-1.1,2.6c-0.9,0.5-1.9,0.5-2.7,0c-1-0.6-1.1-1.4-1.1-2.2h2c0,0.3,0,0.6,0.3,0.8
	c0.2,0.1,0.3,0.1,0.5,0c0.4-0.2,0.3-1,0.3-1.1v-4.8h1.9L67.5,42.2L67.5,42.2z"/>
<path class="st6" d="M72.7,37.3l3,7.7h-2.2l-0.4-1.1h-2.5L70.3,45h-2.1l3-7.7H72.7z M72.6,42.3l-0.7-2.1l-0.7,2.1H72.6z"/>
<path class="st6" d="M81.8,40.3c-0.5-0.8-1.1-1-1.7-1.1c-0.5,0-1.2,0.2-1.7,0.9c-0.4,0.6-0.4,1.3-0.2,1.9c0.3,0.7,0.8,1.1,1.4,1.2
	c0.5,0.1,1.2,0,1.8-0.6c0.2-0.2,0.3-0.4,0.3-0.4h2c-0.4,1.4-1.2,2.3-2.6,2.8c-1.1,0.4-2.6,0.2-3.7-0.7c-1.3-1-1.5-2.4-1.4-3.4
	c0.1-1.1,0.7-2.4,2.1-3.1c1.1-0.6,2.5-0.6,3.8,0.1c1.1,0.6,1.7,1.6,1.9,2.5L81.8,40.3L81.8,40.3z"/>
<path class="st6" d="M92.5,43.6v1.6c-0.6,0.1-1.5,0-2.2-0.6c-1.2,0.7-2.6,0.7-3.7,0.2c-1.2-0.6-1.9-1.7-2.1-2.9
	c-0.2-1,0.1-2.5,1.2-3.5c1-0.9,2.4-1.2,3.4-1c1.2,0.3,2.3,1,2.9,2.4c0.5,1.1,0.4,2.4-0.3,3.6C92,43.6,92.2,43.6,92.5,43.6z
	 M89.3,39.5c-0.5-0.3-1.2-0.4-1.7-0.1c-0.8,0.3-1.1,0.8-1.2,1.5c0.2-0.1,0.3-0.1,0.5-0.2c1.2-0.3,2.1,0.3,3.2,1.5
	c0.2-0.4,0.3-0.8,0.2-1C90.2,40.5,89.9,39.9,89.3,39.5z M86.6,42.3c0,0.1,0.2,0.2,0.3,0.4c0.6,0.5,1.3,0.6,1.9,0.4
	c-0.2-0.2-0.1-0.2-0.4-0.4C87.8,42.2,87.2,42.1,86.6,42.3z"/>
<path class="st6" d="M94.9,37.4v4.4c0,0.4,0,1.1,0.5,1.4c0.3,0.2,0.7,0.1,0.9,0c0.5-0.3,0.5-1.2,0.5-1.6v-4.3h1.9v4.5
	c0,1.1,0,2.1-1.3,2.9c-0.7,0.4-2.3,0.5-3,0C93,44.1,93,42.9,93,42v-4.6L94.9,37.4L94.9,37.4z"/>
<path class="st6" d="M104,37.4v1.7h-2.3v1.1h2.3V42h-2.3v1.2h2.3V45h-4.3v-7.6L104,37.4L104,37.4z"/>
<path class="st6" d="M108,39.7c0,0-0.1-0.6-0.4-0.7c-0.2-0.1-0.4-0.1-0.6,0.1c-0.2,0.1-0.2,0.3-0.2,0.5c0,0.4,0.3,0.4,0.7,0.6
	l0.3,0.1c1.1,0.5,1.9,1.1,1.9,2.3c0,0.6-0.4,1.6-1.2,2.1c-0.8,0.5-2,0.5-2.8,0.1c-0.9-0.5-1.1-1.5-1.1-2.3h1.8c0,0.3,0,0.8,0.4,1
	c0.2,0.1,0.4,0.1,0.6-0.1c0.2-0.2,0.3-0.4,0.3-0.6c-0.1-0.4-0.4-0.6-0.8-0.8l-0.2-0.1c-1-0.4-1.8-1-1.9-2.1c-0.1-0.7,0.2-1.5,1-2.1
	c0.8-0.5,1.9-0.6,2.7-0.1c1,0.6,1.2,1.3,1.2,2.1H108z"/>
<path class="st6" d="M68.2,50.9c-0.5-0.8-1.1-1-1.7-1.1c-0.5,0-1.2,0.2-1.7,0.9c-0.4,0.6-0.4,1.3-0.2,1.9c0.3,0.7,0.8,1.1,1.4,1.2
	c0.5,0.1,1.2,0,1.8-0.6c0.2-0.2,0.3-0.4,0.3-0.4h2c-0.4,1.4-1.2,2.3-2.6,2.8c-1.1,0.4-2.6,0.2-3.7-0.7c-1.3-1-1.5-2.4-1.4-3.4
	c0.1-1.1,0.7-2.4,2.1-3.1c1.1-0.6,2.5-0.6,3.8,0.1c1.1,0.6,1.7,1.6,1.9,2.5L68.2,50.9L68.2,50.9z"/>
<path class="st6" d="M75.2,48l3,7.7h-2.2l-0.4-1.1h-2.5l-0.4,1.1h-2.1l3-7.7H75.2z M75.1,52.9l-0.7-2.1l-0.7,2.1H75.1z"/>
<path class="st6" d="M84.1,48.9c0.5,0.7,0.6,1.7,0.5,2.4c-0.2,0.8-0.8,1.3-1.6,1.7l1.7,2.6h-2.3l-1.5-2.4v2.4H79V48h2.6
	C82.4,48,83.4,48,84.1,48.9z M81.6,51.8c0.9,0,1.1-0.6,1.1-0.8c0.1-0.3,0-0.5-0.2-0.8c-0.3-0.4-1.2-0.4-1.4-0.4h-0.2v2L81.6,51.8
	L81.6,51.8z"/>
<path class="st6" d="M89.9,48v1.7h-1.5v5.9h-1.9v-5.9H85V48H89.9z"/>
<path class="st6" d="M92.6,48v7.6h-1.9V48H92.6z"/>
<path class="st6" d="M97.9,48v1.7h-2.3v1.1h2.3v1.8h-2.3v1.2h2.3v1.7h-4.3V48L97.9,48L97.9,48z"/>
<path class="st6" d="M104.2,48.9c0.5,0.7,0.6,1.7,0.5,2.4c-0.2,0.8-0.8,1.3-1.6,1.7l1.7,2.6h-2.3l-1.5-2.4v2.4H99V48h2.6
	C102.5,48,103.5,48,104.2,48.9z M101.7,51.8c0.9,0,1.1-0.6,1.1-0.8c0.1-0.3,0-0.5-0.2-0.8c-0.3-0.4-1.2-0.4-1.4-0.4H101v2
	L101.7,51.8L101.7,51.8z"/>
</svg>
